<mxfile host="app.diagrams.net" agent="Mozilla/5.0 (Windows NT 10.0; Win64; x64) AppleWebKit/537.36 (KHTML, like Gecko) Chrome/136.0.0.0 Safari/537.36" version="27.0.3" pages="2">
  <diagram name="aws-s3-to-efs-via-lambda" id="ckItVp2jrF1gHrmOOvy5">
    <mxGraphModel dx="2242" dy="562" grid="0" gridSize="10" guides="1" tooltips="1" connect="1" arrows="1" fold="1" page="0" pageScale="1" pageWidth="850" pageHeight="1100" math="0" shadow="0">
      <root>
        <mxCell id="0" />
        <mxCell id="1" parent="0" />
        <mxCell id="smXsDPWXh_MWte_BCuAd-7" value="AWS Cloud" style="points=[[0,0],[0.25,0],[0.5,0],[0.75,0],[1,0],[1,0.25],[1,0.5],[1,0.75],[1,1],[0.75,1],[0.5,1],[0.25,1],[0,1],[0,0.75],[0,0.5],[0,0.25]];outlineConnect=0;gradientColor=none;html=1;whiteSpace=wrap;fontSize=12;fontStyle=0;container=1;pointerEvents=0;collapsible=0;recursiveResize=0;shape=mxgraph.aws4.group;grIcon=mxgraph.aws4.group_aws_cloud_alt;strokeColor=#232F3E;fillColor=none;verticalAlign=top;align=left;spacingLeft=30;fontColor=#232F3E;dashed=0;" parent="1" vertex="1">
          <mxGeometry x="-854" y="47" width="1154" height="436" as="geometry" />
        </mxCell>
        <mxCell id="smXsDPWXh_MWte_BCuAd-12" style="edgeStyle=orthogonalEdgeStyle;rounded=0;orthogonalLoop=1;jettySize=auto;html=1;fontColor=default;dashed=1;" parent="smXsDPWXh_MWte_BCuAd-7" source="smXsDPWXh_MWte_BCuAd-6" target="smXsDPWXh_MWte_BCuAd-11" edge="1">
          <mxGeometry relative="1" as="geometry">
            <Array as="points">
              <mxPoint x="94" y="179" />
              <mxPoint x="556" y="179" />
            </Array>
          </mxGeometry>
        </mxCell>
        <mxCell id="smXsDPWXh_MWte_BCuAd-15" value="&lt;div style=&quot;font-family: &amp;quot;JetBrains Mono&amp;quot;, monospace; font-size: 10.5pt;&quot;&gt;&lt;pre&gt;s3:ObjectCreated:*&lt;/pre&gt;&lt;/div&gt;" style="edgeLabel;html=1;align=center;verticalAlign=middle;resizable=0;points=[];fontColor=default;labelBackgroundColor=default;" parent="smXsDPWXh_MWte_BCuAd-12" vertex="1" connectable="0">
          <mxGeometry x="-0.2178" relative="1" as="geometry">
            <mxPoint x="5" y="22" as="offset" />
          </mxGeometry>
        </mxCell>
        <mxCell id="smXsDPWXh_MWte_BCuAd-6" value="&lt;div style=&quot;font-family: &amp;quot;JetBrains Mono&amp;quot;, monospace; font-size: 10.5pt;&quot;&gt;&lt;pre&gt;source-bucket&lt;/pre&gt;&lt;/div&gt;" style="sketch=0;outlineConnect=0;fontColor=default;gradientColor=none;fillColor=#3F8624;strokeColor=none;dashed=1;verticalLabelPosition=bottom;verticalAlign=top;align=center;html=1;fontSize=12;fontStyle=0;aspect=fixed;pointerEvents=1;shape=mxgraph.aws4.bucket_with_objects;labelBackgroundColor=default;" parent="smXsDPWXh_MWte_BCuAd-7" vertex="1">
          <mxGeometry x="57" y="209" width="75" height="78" as="geometry" />
        </mxCell>
        <mxCell id="smXsDPWXh_MWte_BCuAd-1" value="Customer VPC" style="points=[[0,0],[0.25,0],[0.5,0],[0.75,0],[1,0],[1,0.25],[1,0.5],[1,0.75],[1,1],[0.75,1],[0.5,1],[0.25,1],[0,1],[0,0.75],[0,0.5],[0,0.25]];outlineConnect=0;gradientColor=none;html=1;whiteSpace=wrap;fontSize=12;fontStyle=0;container=1;pointerEvents=0;collapsible=0;recursiveResize=0;shape=mxgraph.aws4.group;grIcon=mxgraph.aws4.group_vpc;strokeColor=#248814;fillColor=none;verticalAlign=top;align=left;spacingLeft=30;fontColor=#AAB7B8;dashed=0;" parent="smXsDPWXh_MWte_BCuAd-7" vertex="1">
          <mxGeometry x="749" y="123.5" width="317" height="246" as="geometry" />
        </mxCell>
        <mxCell id="smXsDPWXh_MWte_BCuAd-3" value="private-egress&amp;nbsp;" style="points=[[0,0],[0.25,0],[0.5,0],[0.75,0],[1,0],[1,0.25],[1,0.5],[1,0.75],[1,1],[0.75,1],[0.5,1],[0.25,1],[0,1],[0,0.75],[0,0.5],[0,0.25]];outlineConnect=0;gradientColor=none;html=1;whiteSpace=wrap;fontSize=12;fontStyle=0;container=1;pointerEvents=0;collapsible=0;recursiveResize=0;shape=mxgraph.aws4.group;grIcon=mxgraph.aws4.group_security_group;grStroke=0;strokeColor=#147EBA;fillColor=#E6F2F8;verticalAlign=top;align=left;spacingLeft=30;fontColor=#147EBA;dashed=0;" parent="smXsDPWXh_MWte_BCuAd-1" vertex="1">
          <mxGeometry x="70" y="42" width="238" height="175" as="geometry" />
        </mxCell>
        <mxCell id="smXsDPWXh_MWte_BCuAd-5" value="&lt;div style=&quot;font-family: &amp;quot;JetBrains Mono&amp;quot;, monospace; font-size: 10.5pt;&quot;&gt;&lt;pre&gt;destination-efs&lt;/pre&gt;&lt;/div&gt;" style="sketch=0;outlineConnect=0;fontColor=default;gradientColor=none;fillColor=#3F8624;strokeColor=none;dashed=0;verticalLabelPosition=bottom;verticalAlign=top;align=center;html=1;fontSize=12;fontStyle=0;aspect=fixed;pointerEvents=1;shape=mxgraph.aws4.elastic_file_system_standard;labelBackgroundColor=none;" parent="smXsDPWXh_MWte_BCuAd-3" vertex="1">
          <mxGeometry x="121" y="46" width="78" height="78" as="geometry" />
        </mxCell>
        <mxCell id="smXsDPWXh_MWte_BCuAd-14" style="edgeStyle=orthogonalEdgeStyle;rounded=0;orthogonalLoop=1;jettySize=auto;html=1;fontColor=default;" parent="smXsDPWXh_MWte_BCuAd-3" source="smXsDPWXh_MWte_BCuAd-10" target="smXsDPWXh_MWte_BCuAd-5" edge="1">
          <mxGeometry relative="1" as="geometry" />
        </mxCell>
        <mxCell id="smXsDPWXh_MWte_BCuAd-10" value="eni" style="sketch=0;outlineConnect=0;fontColor=#232F3E;gradientColor=none;fillColor=#4D27AA;strokeColor=none;dashed=0;verticalLabelPosition=bottom;verticalAlign=top;align=center;html=1;fontSize=12;fontStyle=0;aspect=fixed;pointerEvents=1;shape=mxgraph.aws4.elastic_network_interface;labelBackgroundColor=none;" parent="smXsDPWXh_MWte_BCuAd-3" vertex="1">
          <mxGeometry x="12" y="60" width="50" height="50" as="geometry" />
        </mxCell>
        <mxCell id="smXsDPWXh_MWte_BCuAd-13" style="edgeStyle=orthogonalEdgeStyle;rounded=0;orthogonalLoop=1;jettySize=auto;html=1;fontColor=default;" parent="smXsDPWXh_MWte_BCuAd-7" source="smXsDPWXh_MWte_BCuAd-11" target="smXsDPWXh_MWte_BCuAd-10" edge="1">
          <mxGeometry relative="1" as="geometry" />
        </mxCell>
        <mxCell id="smXsDPWXh_MWte_BCuAd-16" style="edgeStyle=orthogonalEdgeStyle;rounded=0;orthogonalLoop=1;jettySize=auto;html=1;fontColor=default;" parent="smXsDPWXh_MWte_BCuAd-7" source="smXsDPWXh_MWte_BCuAd-11" target="smXsDPWXh_MWte_BCuAd-6" edge="1">
          <mxGeometry relative="1" as="geometry">
            <Array as="points">
              <mxPoint x="556" y="280" />
            </Array>
          </mxGeometry>
        </mxCell>
        <mxCell id="smXsDPWXh_MWte_BCuAd-17" value="&lt;div style=&quot;font-family: &amp;quot;JetBrains Mono&amp;quot;, monospace; font-size: 10.5pt;&quot;&gt;&lt;pre&gt;getObject()&lt;/pre&gt;&lt;/div&gt;" style="edgeLabel;html=1;align=center;verticalAlign=middle;resizable=0;points=[];fontColor=default;labelBackgroundColor=none;" parent="smXsDPWXh_MWte_BCuAd-16" vertex="1" connectable="0">
          <mxGeometry x="0.282" y="2" relative="1" as="geometry">
            <mxPoint x="-15" y="-15" as="offset" />
          </mxGeometry>
        </mxCell>
        <mxCell id="TQsJEO_72nxXpTHiSJqJ-6" value="AWS Lambda Service VPC" style="points=[[0,0],[0.25,0],[0.5,0],[0.75,0],[1,0],[1,0.25],[1,0.5],[1,0.75],[1,1],[0.75,1],[0.5,1],[0.25,1],[0,1],[0,0.75],[0,0.5],[0,0.25]];outlineConnect=0;gradientColor=none;html=1;whiteSpace=wrap;fontSize=12;fontStyle=0;container=1;pointerEvents=0;collapsible=0;recursiveResize=0;shape=mxgraph.aws4.group;grIcon=mxgraph.aws4.group_vpc;strokeColor=#248814;fillColor=none;verticalAlign=top;align=left;spacingLeft=30;fontColor=#AAB7B8;dashed=0;labelBackgroundColor=none;" parent="smXsDPWXh_MWte_BCuAd-7" vertex="1">
          <mxGeometry x="410" y="126.5" width="272" height="243" as="geometry" />
        </mxCell>
        <mxCell id="smXsDPWXh_MWte_BCuAd-11" value="&lt;div style=&quot;font-family: &amp;quot;JetBrains Mono&amp;quot;, monospace; font-size: 10.5pt;&quot;&gt;&lt;pre&gt;file-mover-function&lt;/pre&gt;&lt;/div&gt;" style="sketch=0;outlineConnect=0;fontColor=default;gradientColor=none;fillColor=#D45B07;strokeColor=none;dashed=0;verticalLabelPosition=bottom;verticalAlign=top;align=center;html=1;fontSize=12;fontStyle=0;aspect=fixed;pointerEvents=1;shape=mxgraph.aws4.lambda_function;labelBackgroundColor=none;" parent="TQsJEO_72nxXpTHiSJqJ-6" vertex="1">
          <mxGeometry x="122" y="100" width="48" height="48" as="geometry" />
        </mxCell>
      </root>
    </mxGraphModel>
  </diagram>
  <diagram id="Mi8Sfn2NncXidrsRxcEH" name="Page-2">
    <mxGraphModel dx="954" dy="674" grid="0" gridSize="10" guides="1" tooltips="1" connect="1" arrows="1" fold="1" page="0" pageScale="1" pageWidth="850" pageHeight="1100" math="0" shadow="0">
      <root>
        <mxCell id="0" />
        <mxCell id="1" parent="0" />
      </root>
    </mxGraphModel>
  </diagram>
</mxfile>
